<svg width="40" height="40" viewBox="0 0 40 40" fill="none" xmlns="http://www.w3.org/2000/svg">
<path d="M19.3562 1.12207L1.25 9.83988V14.3754H38.75V9.81582L19.3562 1.12207ZM36.25 11.8754H3.75V11.4108L19.3938 3.87863L36.25 11.4349V11.8754Z" fill="#2C3D5B"/>
<path d="M3.75 31.875H36.25V34.375H3.75V31.875Z" fill="#2C3D5B"/>
<path d="M1.25 36.25H38.75V38.75H1.25V36.25Z" fill="#2C3D5B"/>
<path d="M4.375 16.875H6.875V29.375H4.375V16.875Z" fill="#2C3D5B"/>
<path d="M33.125 16.875H35.625V29.375H33.125V16.875Z" fill="#2C3D5B"/>
<path d="M25.625 16.875H28.125V29.375H25.625V16.875Z" fill="#2C3D5B"/>
<path d="M11.875 16.875H14.375V29.375H11.875V16.875Z" fill="#2C3D5B"/>
<path d="M18.75 16.875H21.25V29.375H18.75V16.875Z" fill="#2C3D5B"/>
</svg>
