<svg width="40" height="40" viewBox="0 0 40 40" fill="none" xmlns="http://www.w3.org/2000/svg">
<path d="M8.33341 10H38.3334V30H8.33341V10ZM23.3334 15C24.6595 15 25.9313 15.5268 26.8689 16.4645C27.8066 17.4021 28.3334 18.6739 28.3334 20C28.3334 21.3261 27.8066 22.5979 26.8689 23.5355C25.9313 24.4732 24.6595 25 23.3334 25C22.0073 25 20.7356 24.4732 19.7979 23.5355C18.8602 22.5979 18.3334 21.3261 18.3334 20C18.3334 18.6739 18.8602 17.4021 19.7979 16.4645C20.7356 15.5268 22.0073 15 23.3334 15ZM15.0001 13.3333C15.0001 14.2174 14.6489 15.0652 14.0238 15.6904C13.3986 16.3155 12.5508 16.6667 11.6667 16.6667V23.3333C12.5508 23.3333 13.3986 23.6845 14.0238 24.3096C14.6489 24.9348 15.0001 25.7826 15.0001 26.6667H31.6667C31.6667 25.7826 32.0179 24.9348 32.6431 24.3096C33.2682 23.6845 34.116 23.3333 35.0001 23.3333V16.6667C34.116 16.6667 33.2682 16.3155 32.6431 15.6904C32.0179 15.0652 31.6667 14.2174 31.6667 13.3333H15.0001ZM1.66675 16.6667H5.00008V33.3333H31.6667V36.6667H1.66675V16.6667Z" fill="#2C3D5B"/>
</svg>
