<svg width="207" height="205" viewBox="0 0 207 205" fill="none" xmlns="http://www.w3.org/2000/svg">
<path d="M207 139C207 215.784 144.784 278 68 278C62.8271 278 57.7246 277.719 52.7276 277.155C25.9481 274.235 1.45596 263.713 -18.5319 247.772C-37.64 232.535 -52.6661 212.406 -61.6747 189.181C-67.6922 173.627 -71 156.701 -71 139C-71 135.587 -70.8944 132.173 -70.6481 128.795C-65.44 56.7965 -5.37089 0 68 0C88.1286 0 107.237 4.25795 124.515 11.9645C134.72 16.504 144.292 22.2752 153.019 29.0316C163.048 36.7734 171.986 45.8524 179.552 56.0574C193.1 74.2506 202.32 95.8924 205.628 119.399C206.542 125.804 207 132.349 207 139Z" fill="#CBD5E1"/>
<path d="M168.713 46.6969C165.229 53.5238 161.288 59.8227 157.84 63.9751C141.793 83.3295 67.8943 156.665 -67.0941 173.627C-70.7539 157.369 -71.5632 140.126 -68.9592 122.637C-68.4665 119.258 -67.8331 115.915 -67.0941 112.607C-20.3268 102.614 83.5538 76.4323 135.107 32.1986C137.922 29.7705 140.597 27.5888 143.06 25.583C152.491 31.5653 161.112 38.6736 168.749 46.6617L168.713 46.6969Z" fill="#F1F5F9"/>
<path d="M205.628 119.399C180.009 151.844 144.151 182.776 124.761 192.172C77.2901 215.186 21.3383 203.644 81.1259 166.519C154.497 120.948 174.801 80.5146 179.552 56.0576C193.1 74.2508 202.32 95.8926 205.628 119.399Z" fill="#F1F5F9"/>
</svg>
