<svg width="105" height="90" viewBox="0 0 105 90" fill="none" xmlns="http://www.w3.org/2000/svg">
<g id="Layer 2">
<path id="Vector" d="M10.4158 89.3901C10.4088 89.4805 10.3826 89.5684 10.339 89.6479C10.2954 89.7274 10.2354 89.7967 10.1629 89.8513C10.0567 89.9468 9.91901 89.9997 9.77617 90C9.68684 89.9973 9.59952 89.9728 9.52177 89.9287C9.44401 89.8847 9.37816 89.8223 9.32989 89.7471L3.37948 82.3091L1.6241 84.0942V89.3455C1.63681 89.4265 1.63019 89.5094 1.60479 89.5874C1.57938 89.6654 1.5359 89.7363 1.47789 89.7943C1.41989 89.8523 1.349 89.8958 1.271 89.9212C1.193 89.9466 1.1101 89.9532 1.02906 89.9405C0.948021 89.9532 0.865124 89.9466 0.787126 89.9212C0.709128 89.8958 0.638238 89.8523 0.580233 89.7943C0.522227 89.7363 0.478748 89.6654 0.45334 89.5874C0.427931 89.5094 0.421312 89.4265 0.434021 89.3455V75.7339C0.421952 75.6523 0.428889 75.5691 0.45429 75.4906C0.479692 75.4121 0.522872 75.3406 0.580465 75.2816C0.638058 75.2225 0.708506 75.1776 0.786319 75.1503C0.864131 75.1229 0.947205 75.1139 1.02906 75.124C1.11092 75.1139 1.19399 75.1229 1.27181 75.1503C1.34962 75.1776 1.42007 75.2225 1.47766 75.2816C1.53525 75.3406 1.57843 75.4121 1.60384 75.4906C1.62924 75.5691 1.63617 75.6523 1.6241 75.7339V82.3686L8.48195 75.3323C8.58877 75.2117 8.73799 75.1371 8.89848 75.124C9.05816 75.14 9.2064 75.2141 9.31501 75.3323C9.43572 75.4497 9.50522 75.6101 9.5084 75.7785C9.4958 75.9287 9.4329 76.0702 9.32989 76.1802L4.18278 81.4761L10.2522 88.9141C10.3103 88.9782 10.3547 89.0535 10.3828 89.1353C10.4109 89.2171 10.4222 89.3038 10.4158 89.3901V89.3901Z" fill="white"/>
<path id="Vector_2" d="M33.8456 75.6892C33.8404 75.8217 33.7993 75.9503 33.7265 76.0611L28.5348 84.1983V89.3305C28.5348 89.4883 28.4721 89.6397 28.3605 89.7513C28.2489 89.8629 28.0976 89.9256 27.9398 89.9256C27.782 89.9256 27.6306 89.8629 27.519 89.7513C27.4074 89.6397 27.3447 89.4883 27.3447 89.3305V84.1983L22.1827 76.0611C22.1162 75.9593 22.0801 75.8406 22.0786 75.7189C22.0843 75.6172 22.116 75.5187 22.1707 75.4327C22.2254 75.3467 22.3013 75.2763 22.391 75.228C22.4984 75.1617 22.6218 75.1257 22.748 75.1239C22.8475 75.1307 22.9436 75.163 23.027 75.2177C23.1104 75.2724 23.1783 75.3477 23.2241 75.4363L27.9398 82.8743L32.715 75.4363C32.761 75.3535 32.8277 75.2839 32.9084 75.2344C32.9892 75.1849 33.0814 75.1571 33.1761 75.1537C33.3086 75.1588 33.4372 75.1999 33.548 75.2727C33.6311 75.308 33.7029 75.3656 33.7554 75.4391C33.8079 75.5126 33.8391 75.5991 33.8456 75.6892V75.6892Z" fill="white"/>
<path id="Vector_3" d="M46.6539 88.795C46.2326 88.2927 45.9146 87.7122 45.718 87.0868C45.5215 86.4614 45.4503 85.8034 45.5084 85.1504V79.914C45.3951 78.5911 45.8065 77.2767 46.6539 76.2545C47.152 75.8368 47.7278 75.5218 48.3483 75.3278C48.9687 75.1337 49.6214 75.0644 50.2688 75.1239H53.0506C53.7047 75.0653 54.364 75.1377 54.9898 75.337C55.6156 75.5362 56.1954 75.8582 56.6952 76.2843C57.5369 77.2973 57.9434 78.6022 57.8258 79.914V85.1504C57.886 85.8024 57.8171 86.4598 57.6232 87.0852C57.4292 87.7106 57.1138 88.2916 56.6952 88.795C55.6799 89.6444 54.3692 90.0563 53.0506 89.9405H50.2985C49.6455 89.9986 48.9875 89.9274 48.3621 89.7309C47.7367 89.5343 47.1562 89.2163 46.6539 88.795V88.795ZM53.0506 88.795C54.0469 88.8975 55.0441 88.6096 55.8324 87.9917C56.4502 87.2034 56.7382 86.2062 56.6357 85.2099V79.914C56.7382 78.9177 56.4502 77.9205 55.8324 77.1322C55.0441 76.5144 54.0469 76.2264 53.0506 76.3289H50.2688C49.5554 76.285 48.8408 76.3914 48.1712 76.6413C47.6673 76.86 47.2675 77.2651 47.0555 77.7719C46.7886 78.4532 46.667 79.1829 46.6985 79.914V85.1504C46.5921 86.1494 46.8863 87.1499 47.5167 87.9322C48.305 88.5501 49.3022 88.838 50.2985 88.7355L53.0506 88.795Z" fill="white"/>
<path id="Vector_4" d="M81.3892 75.719V89.3305C81.3992 89.4124 81.3903 89.4955 81.3629 89.5733C81.3356 89.6511 81.2907 89.7215 81.2316 89.7791C81.1726 89.8367 81.1011 89.8799 81.0226 89.9053C80.9441 89.9307 80.8609 89.9377 80.7793 89.9256C80.6599 89.9205 80.5435 89.8868 80.4399 89.8273C80.3364 89.7677 80.2486 89.6841 80.1842 89.5834L70.6933 77.3553V89.2562C70.6707 89.3997 70.5976 89.5304 70.4871 89.6248C70.3767 89.7192 70.2362 89.7711 70.0908 89.7711C69.9455 89.7711 69.805 89.7192 69.6946 89.6248C69.5841 89.5304 69.511 89.3997 69.4884 89.2562V75.719C69.4783 75.6371 69.4873 75.554 69.5146 75.4762C69.542 75.3984 69.5869 75.328 69.6459 75.2704C69.705 75.2128 69.7765 75.1696 69.855 75.1442C69.9334 75.1188 70.0167 75.1119 70.0983 75.1239C70.2194 75.1302 70.3375 75.1643 70.4433 75.2237C70.549 75.283 70.6397 75.366 70.7082 75.4661L80.1842 87.6495V75.7487C80.1715 75.6677 80.1781 75.5848 80.2036 75.5068C80.229 75.4288 80.2724 75.3579 80.3304 75.2999C80.3884 75.2419 80.4593 75.1984 80.5373 75.173C80.6153 75.1476 80.6982 75.141 80.7793 75.1537C80.8581 75.1424 80.9385 75.149 81.0146 75.1727C81.0906 75.1965 81.1604 75.2369 81.2188 75.2911C81.2773 75.3452 81.3229 75.4118 81.3524 75.4858C81.3818 75.5598 81.3944 75.6395 81.3892 75.719V75.719Z" fill="white"/>
<path id="Vector_5" d="M94.1532 89.0033C93.7905 88.6222 93.5096 88.1709 93.328 87.6771C93.1463 87.1833 93.0677 86.6575 93.097 86.1322C93.085 86.0491 93.0922 85.9643 93.1179 85.8844C93.1437 85.8044 93.1875 85.7315 93.2458 85.6711C93.3054 85.6153 93.3757 85.5721 93.4523 85.544C93.529 85.5159 93.6105 85.5034 93.6921 85.5074C93.7691 85.504 93.846 85.5168 93.9177 85.545C93.9895 85.5732 94.0545 85.6161 94.1086 85.6711C94.218 85.7888 94.2813 85.9419 94.2871 86.1025C94.2371 86.85 94.4829 87.5873 94.9714 88.1553C95.6235 88.5925 96.4061 88.7921 97.188 88.7206H100.49C100.903 88.8374 101.339 88.842 101.754 88.734C102.169 88.6259 102.548 88.4091 102.851 88.1059C103.154 87.8027 103.371 87.4241 103.479 87.0092C103.587 86.5943 103.582 86.158 103.466 85.7454C103.549 84.9353 103.314 84.1245 102.811 83.4843C102.158 82.9962 101.345 82.773 100.535 82.8595H97.307C96.7665 82.9067 96.2221 82.8411 95.7084 82.6667C95.1947 82.4923 94.7229 82.213 94.3229 81.8464C93.9229 81.4799 93.6035 81.0342 93.385 80.5376C93.1665 80.0411 93.0537 79.5045 93.0537 78.962C93.0537 78.4194 93.1665 77.8829 93.385 77.3863C93.6035 76.8897 93.9229 76.444 94.3229 76.0775C94.7229 75.711 95.1947 75.4316 95.7084 75.2572C96.2221 75.0828 96.7665 75.0172 97.307 75.0644H100.55C101.577 74.9762 102.599 75.2849 103.406 75.9272C103.746 76.2919 104.01 76.7201 104.184 77.1873C104.358 77.6546 104.437 78.1515 104.418 78.6496C104.426 78.728 104.417 78.8073 104.392 78.8819C104.366 78.9565 104.324 79.0245 104.269 79.081C104.141 79.1918 103.977 79.2502 103.808 79.2446C103.733 79.246 103.659 79.2321 103.59 79.204C103.521 79.1759 103.459 79.134 103.406 79.081C103.347 79.0284 103.3 78.9643 103.266 78.8927C103.233 78.821 103.215 78.7434 103.213 78.6644C103.24 78.3261 103.198 77.9857 103.091 77.6637C102.984 77.3417 102.813 77.0446 102.588 76.7901C101.992 76.3786 101.271 76.1891 100.55 76.2545H97.2772C96.8935 76.2051 96.5037 76.238 96.1337 76.3511C95.7637 76.4642 95.4221 76.6548 95.1316 76.9103C94.8411 77.1658 94.6083 77.4802 94.4489 77.8327C94.2895 78.1852 94.2071 78.5677 94.2071 78.9545C94.2071 79.3414 94.2895 79.7238 94.4489 80.0763C94.6083 80.4288 94.8411 80.7433 95.1316 80.9988C95.4221 81.2543 95.7637 81.4449 96.1337 81.558C96.5037 81.671 96.8935 81.704 97.2772 81.6545H100.416C101.553 81.5619 102.68 81.9199 103.555 82.6512C104.195 83.559 104.538 84.6424 104.538 85.7529C104.538 86.8634 104.195 87.9467 103.555 88.8545C102.68 89.5859 101.553 89.9439 100.416 89.8512H97.1284C96.0661 89.9447 95.0067 89.6428 94.1532 89.0033V89.0033Z" fill="white"/>
<g id="Group 1430">
<path id="Vector_6" d="M57.8404 36.8182C56.5926 36.8064 55.3762 36.4257 54.3443 35.7239C53.3125 35.0221 52.5114 34.0306 52.042 32.8744C51.5726 31.7181 51.4558 30.4488 51.7065 29.2264C51.9571 28.0039 52.5639 26.883 53.4504 26.0047C54.3369 25.1265 55.4635 24.5302 56.6883 24.291C57.913 24.0519 59.1812 24.1805 60.3329 24.6607C61.4847 25.1409 62.4686 25.9513 63.1608 26.9896C63.8529 28.028 64.2222 29.248 64.2223 30.4959C64.2184 31.33 64.0502 32.1553 63.7274 32.9244C63.4045 33.6936 62.9334 34.3917 62.3408 34.9788C61.7482 35.5658 61.0457 36.0304 60.2736 36.3461C59.5014 36.6617 58.6746 36.8221 57.8404 36.8182ZM57.8404 25.6612C56.8869 25.6729 55.958 25.9664 55.1708 26.5047C54.3836 27.043 53.7732 27.8022 53.4164 28.6866C53.0596 29.571 52.9723 30.5411 53.1655 31.475C53.3587 32.4089 53.8238 33.2648 54.5023 33.935C55.1807 34.6052 56.0422 35.0598 56.9784 35.2416C57.9146 35.4233 58.8836 35.3242 59.7636 34.9566C60.6436 34.589 61.3952 33.9693 61.9238 33.1756C62.4525 32.3819 62.7346 31.4495 62.7347 30.4959C62.7229 29.207 62.2016 27.9751 61.2846 27.0692C60.3676 26.1634 59.1294 25.6572 57.8404 25.6612Z" fill="white"/>
<path id="Vector_7" d="M68.8637 42.4562C67.9619 42.4554 67.0685 42.2837 66.2306 41.9504C65.3522 41.6198 64.5485 41.1171 63.8669 40.4718C63.1852 39.8265 62.6393 39.0517 62.261 38.1926C61.8828 37.3336 61.6798 36.4077 61.6641 35.4692C61.6484 34.5307 61.8202 33.5985 62.1695 32.7273L63.5529 33.2777C63.2788 33.9609 63.143 34.6918 63.1535 35.428C63.1639 36.1641 63.3203 36.8908 63.6136 37.5661C63.907 38.2413 64.3314 38.8516 64.8623 39.3616C65.3933 39.8717 66.0202 40.2712 66.7067 40.5372C68.0941 41.0924 69.6446 41.0772 71.0209 40.495C72.3971 39.9127 73.4878 38.8104 74.0554 37.4281C74.9906 34.7398 75.3736 31.8904 75.1815 29.0506C74.9894 26.2108 74.2262 23.439 72.9376 20.9011C71.649 18.3633 69.8615 16.1115 67.6821 14.2808C65.5027 12.4501 62.9763 11.078 60.2541 10.2467C57.5319 9.41541 54.67 9.14204 51.8396 9.44295C49.0093 9.74385 46.2688 10.6129 43.7822 11.9979C41.2957 13.383 39.1142 15.2556 37.3684 17.5036C35.6227 19.7517 34.3486 22.3289 33.6224 25.081L32.1348 24.6942C32.9301 21.7636 34.3069 19.0229 36.1831 16.6352C38.0594 14.2475 40.3967 12.2617 43.0561 10.7958C45.7156 9.32997 48.6427 8.41405 51.6633 8.10258C54.6839 7.7911 57.7363 8.09044 60.6389 8.98277C63.5415 9.8751 66.2349 11.3422 68.5589 13.2968C70.8829 15.2513 72.7899 17.6534 74.1666 20.36C75.5433 23.0667 76.3614 26.0226 76.5723 29.052C76.7832 32.0813 76.3826 35.1221 75.3943 37.9934C74.8618 39.2946 73.9592 40.411 72.7984 41.2043C71.6375 41.9976 70.2695 42.4328 68.8637 42.4562V42.4562Z" fill="white"/>
<path id="Vector_8" d="M70.4704 30.4958H68.9828C68.9622 27.2624 67.7403 24.152 65.5544 21.7693C63.3685 19.3865 60.3748 17.9016 57.1551 17.603C53.9353 17.3044 50.7196 18.2135 48.1328 20.1536C45.546 22.0937 43.7729 24.9263 43.158 28.1008L41.6704 27.7884C42.3594 24.2475 44.3406 21.0894 47.2288 18.9282C50.1169 16.7669 53.7056 15.7568 57.297 16.0945C60.8884 16.4321 64.226 18.0932 66.6607 20.7549C69.0954 23.4166 70.4534 26.8886 70.4704 30.4958V30.4958Z" fill="white"/>
<path id="Vector_9" d="M52.5003 60.9918C50.7156 60.9829 48.9736 60.4455 47.4943 59.4473C46.0149 58.4491 44.8645 57.0349 44.1883 55.3833C43.5122 53.7317 43.3406 51.9168 43.6952 50.1677C44.0499 48.4187 44.9149 46.8139 46.1809 45.5562C47.447 44.2984 49.0574 43.444 50.8088 43.1009C52.5601 42.7577 54.3739 42.9412 56.021 43.6283C57.6681 44.3153 59.0747 45.475 60.0631 46.9609C61.0516 48.4468 61.5775 50.1923 61.5746 51.9769C61.5707 53.1647 61.3329 54.34 60.8748 55.4359C60.4166 56.5317 59.7471 57.5266 58.9045 58.3637C58.0619 59.2008 57.0626 59.8638 55.9638 60.3147C54.8649 60.7656 53.688 60.9957 52.5003 60.9918V60.9918ZM52.5003 44.4347C51.0105 44.4436 49.5567 44.8934 48.3223 45.7275C47.0879 46.5615 46.1281 47.7425 45.5641 49.1214C45.0001 50.5003 44.8571 52.0154 45.1531 53.4755C45.4492 54.9355 46.171 56.2752 47.2275 57.3256C48.2841 58.3759 49.628 59.0898 51.0898 59.3772C52.5516 59.6646 54.0658 59.5127 55.4413 58.9406C56.8169 58.3684 57.9922 57.4017 58.819 56.1624C59.6458 54.9231 60.087 53.4667 60.087 51.9769C60.0851 50.9832 59.8872 49.9997 59.5047 49.0826C59.1222 48.1655 58.5626 47.3329 57.8579 46.6324C57.1532 45.9318 56.3172 45.3771 55.3979 45C54.4786 44.6229 53.4939 44.4308 52.5003 44.4347V44.4347Z" fill="white"/>
<path id="Vector_10" d="M47.3677 34.4083C47.0606 34.43 46.7524 34.43 46.4454 34.4083C44.9403 34.1649 43.5926 33.336 42.6966 32.1025C42.2558 31.501 41.9405 30.8171 41.7693 30.0913C41.598 29.3655 41.5745 28.6127 41.6999 27.8777L43.1875 28.1157C43.0998 28.6574 43.1204 29.2111 43.2481 29.7447C43.3758 30.2784 43.608 30.7815 43.9313 31.2248C44.4238 31.9037 45.1054 32.4225 45.8909 32.7164C46.6764 33.0103 47.5311 33.0664 48.3483 32.8775C49.1655 32.6887 49.909 32.2634 50.4859 31.6546C51.0629 31.0459 51.4477 30.2807 51.5925 29.4545L53.0801 29.6926C52.8434 31.0291 52.1386 32.2377 51.0918 33.1018C50.0451 33.9659 48.7249 34.4291 47.3677 34.4083V34.4083Z" fill="white"/>
<path id="Vector_11" d="M77.6108 43.0215C77.0731 43.0222 76.5411 42.9107 76.0489 42.6942C75.5756 42.4919 75.1471 42.1978 74.7881 41.829C74.4291 41.4602 74.1467 41.0239 73.9573 40.5453C73.7678 40.0668 73.675 39.5555 73.6842 39.0409C73.6933 38.5263 73.8044 38.0186 74.0108 37.5471L75.3794 38.1421C75.2542 38.4335 75.1896 38.7473 75.1896 39.0645C75.1896 39.3816 75.2542 39.6954 75.3794 39.9868C75.495 40.2873 75.6707 40.561 75.8958 40.7912C76.1209 41.0215 76.3907 41.2033 76.6885 41.3256C77.283 41.5821 77.9544 41.5948 78.5582 41.3611C79.1619 41.1274 79.6498 40.6659 79.9166 40.076C80.9995 36.998 81.5527 33.7588 81.553 30.4959C81.4625 23.3807 78.7902 16.5408 74.0334 11.2487C69.2766 5.95659 62.7592 2.57281 55.6939 1.72694C48.6287 0.881074 41.4967 2.63073 35.6251 6.65036C29.7534 10.67 25.542 16.6858 23.7745 23.5785C23.226 25.9173 23.6272 28.3781 24.8902 30.4215C25.8546 31.965 27.2521 33.1905 28.9084 33.9449C30.5648 34.6993 32.4066 34.9493 34.2041 34.6638C36.0016 34.3782 37.6753 33.5697 39.0163 32.3391C40.3572 31.1084 41.3062 29.5102 41.7447 27.7438L43.2323 28.0859C42.7397 30.1588 41.6433 32.0389 40.0819 33.4885C38.5205 34.9381 36.5642 35.8921 34.4606 36.2297C32.3569 36.5673 30.2004 36.2734 28.2638 35.3851C26.3272 34.4969 24.6976 33.0542 23.5811 31.2397C22.8432 30.0619 22.3485 28.7483 22.1262 27.3763C21.9039 26.0043 21.9586 24.6018 22.2869 23.2512C23.2702 19.2004 25.0662 15.3915 27.5658 12.0557C30.0654 8.71979 33.2166 5.92642 36.8282 3.84499C40.4398 1.76356 44.4366 0.437451 48.5761 -0.052904C52.7156 -0.543259 56.9116 -0.18764 60.9096 0.992384C64.9076 2.17241 68.6242 4.15224 71.834 6.8118C75.0438 9.47136 77.6799 12.7552 79.5825 16.4642C81.485 20.1732 82.6143 24.2299 82.9019 28.3885C83.1895 32.547 82.6294 36.7206 81.2555 40.6562C80.9403 41.3596 80.4287 41.957 79.7821 42.3766C79.1356 42.7962 78.3816 43.0201 77.6108 43.0215V43.0215Z" fill="white"/>
</g>
</g>
</svg>
