<svg width="102" height="32" viewBox="0 0 102 32" fill="none" xmlns="http://www.w3.org/2000/svg">
<g clip-path="url(#clip0_2522_12334)">
<path d="M18.8067 19.2944C16.9742 19.2944 15.4844 17.8172 15.4844 16C15.4844 14.1827 16.9742 12.7056 18.8067 12.7056C20.6392 12.7056 22.129 14.1827 22.129 16C22.129 17.8172 20.6392 19.2944 18.8067 19.2944ZM18.8067 13.4289C17.3727 13.4289 16.2052 14.5812 16.2052 16C16.2052 17.4188 17.3727 18.571 18.8067 18.571C20.2407 18.571 21.4082 17.4188 21.4082 16C21.4082 14.5812 20.2407 13.4289 18.8067 13.4289Z" fill="white"/>
<path d="M24.5657 22.2613C24.1063 22.2613 23.6393 22.1776 23.1875 21.9974C22.2586 21.6293 21.5327 20.9238 21.1418 20.0126C20.756 19.109 20.7433 18.109 21.1139 17.1979C21.1875 17.0126 21.3982 16.9238 21.5834 16.9974C21.7687 17.071 21.8576 17.2816 21.7839 17.4669C21.487 18.1979 21.4971 18.9999 21.8068 19.7258C22.1215 20.4593 22.7053 21.0278 23.454 21.3248C24.9921 21.9339 26.7433 21.1928 27.3576 19.6699C28.0098 18.0532 27.9895 16.0227 27.9895 16.0024C27.9895 9.90852 22.9845 4.95421 16.8322 4.95421C11.7763 4.95421 7.34233 8.32731 6.04791 13.1573C5.99715 13.3501 5.79918 13.4644 5.60628 13.4136C5.41339 13.3628 5.29918 13.1649 5.34994 12.972C6.72811 7.82731 11.4515 4.2334 16.8322 4.2334C23.3829 4.2334 28.7103 9.51005 28.7103 15.9974C28.7103 16.0811 28.7357 18.1852 28.0276 19.939C27.4464 21.3781 26.0454 22.2562 24.5657 22.2562V22.2613Z" fill="white"/>
<path d="M25.0607 16.3603C24.8602 16.3603 24.7003 16.1979 24.7003 15.9999C24.7003 12.2461 21.614 9.19283 17.8221 9.19283C14.4897 9.19283 11.7714 11.4187 11.0633 14.7309C11.0226 14.9263 10.8298 15.0482 10.6343 15.0076C10.4389 14.9669 10.3145 14.7741 10.3577 14.5786C11.1419 10.9238 14.1419 8.46948 17.8247 8.46948C22.015 8.46948 25.4237 11.8477 25.4237 15.9974C25.4237 16.1979 25.2612 16.3578 25.0633 16.3578L25.0607 16.3603Z" fill="white"/>
<path d="M15.9948 31.9999C13.3832 31.9999 11.2588 29.8857 11.2588 27.2893C11.2588 24.6928 13.3832 22.5786 15.9948 22.5786C18.6065 22.5786 20.7309 24.6928 20.7309 27.2893C20.7309 29.8857 18.6065 31.9999 15.9948 31.9999ZM15.9948 23.2994C13.7816 23.2994 11.9796 25.0888 11.9796 27.2893C11.9796 29.4898 13.7791 31.2791 15.9948 31.2791C18.2106 31.2791 20.0075 29.4898 20.0075 27.2893C20.0075 25.0888 18.208 23.2994 15.9948 23.2994Z" fill="white"/>
<path d="M13.3017 18.0304C13.1443 18.0304 12.987 18.0177 12.8271 17.9923C12.0352 17.8654 11.3398 17.4415 10.8728 16.7943C10.4108 16.1547 10.2256 15.3756 10.3525 14.5989C10.3829 14.4009 10.5707 14.2664 10.7662 14.2994C10.9641 14.3324 11.0961 14.5177 11.0657 14.7131C10.9718 15.2994 11.1114 15.8882 11.4591 16.3705C11.8144 16.8603 12.3398 17.1827 12.9413 17.2791C14.1773 17.4771 15.3398 16.6421 15.5377 15.4238C15.5682 15.2258 15.756 15.0913 15.9515 15.1243C16.1494 15.1573 16.2814 15.3426 16.2509 15.538C16.0149 16.9923 14.7433 18.0278 13.3042 18.0278L13.3017 18.0304Z" fill="white"/>
<path d="M29.2033 22.5508C28.9317 22.5508 28.6576 22.4975 28.3936 22.3833C27.8911 22.1675 27.5053 21.769 27.3048 21.264C27.1068 20.7614 27.117 20.2132 27.3327 19.7183C27.4139 19.5355 27.6246 19.4518 27.8073 19.533C27.9901 19.6142 28.0738 19.8249 27.9926 20.0076C27.853 20.3249 27.8479 20.6751 27.9748 20.9975C28.1043 21.3223 28.353 21.5787 28.6753 21.7183C29.3378 22.0025 30.1119 21.7056 30.4063 21.0533C31.1246 19.0381 31.2743 17.1904 31.2743 15.9975C31.2743 7.5736 24.3505 0.718274 15.8403 0.718274C8.74133 0.720812 2.57382 5.50508 0.853007 12.3553C0.558591 13.599 0.766713 14.8858 1.44438 15.9772C2.12966 17.0838 3.21088 17.8579 4.48752 18.1548C7.10935 18.764 9.74133 17.1523 10.3581 14.5584C10.4038 14.3655 10.5992 14.2437 10.7921 14.2919C10.985 14.3376 11.1068 14.533 11.0586 14.7259C10.3505 17.7056 7.33016 19.5584 4.32255 18.8579C2.85808 18.5152 1.61697 17.6294 0.830164 16.3579C0.0509765 15.1015 -0.19014 13.6193 0.152499 12.1853C1.95453 5.00761 8.40884 0 15.8454 0C24.754 0 32.0002 7.17767 32.0002 16C32.0002 17.2538 31.8403 19.1929 31.084 21.3122C31.0814 21.3198 31.0789 21.3274 31.0738 21.335C30.7413 22.0964 29.9875 22.5508 29.2007 22.5508H29.2033Z" fill="white"/>
<path d="M39.4058 19.9695C39.2053 19.9695 39.0454 19.8071 39.0454 19.6091V12.3934C39.0454 12.1929 39.2078 12.033 39.4058 12.033C39.6038 12.033 39.7662 12.1954 39.7662 12.3934V19.6091C39.7662 19.8096 39.6038 19.9695 39.4058 19.9695Z" fill="white"/>
<path d="M45.3961 19.9695C45.325 19.9695 45.2514 19.9492 45.1879 19.9035L40.1093 16.3274C39.9468 16.2132 39.9062 15.9873 40.023 15.8248C40.1372 15.6624 40.3631 15.6218 40.5255 15.7385L45.6042 19.3147C45.7666 19.4289 45.8072 19.6548 45.6905 19.8172C45.6194 19.9162 45.5077 19.9695 45.3961 19.9695Z" fill="white"/>
<path d="M39.4061 17.0432C39.2944 17.0432 39.1828 16.9899 39.1117 16.8909C38.995 16.7285 39.033 16.5026 39.1955 16.3884L45.2082 12.099C45.3706 11.9823 45.5965 12.0203 45.7107 12.1828C45.8274 12.3452 45.7894 12.5711 45.6269 12.6853L39.6142 16.9746C39.5508 17.0203 39.4772 17.0406 39.4061 17.0406V17.0432Z" fill="white"/>
<path d="M56.3477 19.9694C56.1472 19.9694 55.9873 19.8069 55.9873 19.609V16.9288C55.9873 16.7283 56.1497 16.5684 56.3477 16.5684C56.5457 16.5684 56.7081 16.7308 56.7081 16.9288V19.609C56.7081 19.8095 56.5457 19.9694 56.3477 19.9694Z" fill="white"/>
<path d="M56.3477 17.2892C56.2309 17.2892 56.1167 17.2334 56.0457 17.1268L53.038 12.5913C52.9289 12.4263 52.972 12.2004 53.1396 12.0913C53.3045 11.9821 53.5304 12.0253 53.6396 12.1928L56.6472 16.7283C56.7563 16.8933 56.7132 17.1192 56.5457 17.2283C56.4847 17.2689 56.4162 17.2892 56.3451 17.2892H56.3477Z" fill="white"/>
<path d="M56.3477 17.2892C56.2792 17.2892 56.2107 17.2689 56.1472 17.2283C55.9822 17.1192 55.9365 16.8933 56.0457 16.7283L59.0533 12.1928C59.1624 12.0253 59.3883 11.9821 59.5533 12.0913C59.7183 12.2004 59.764 12.4263 59.6548 12.5913L56.6472 17.1268C56.5787 17.2309 56.4619 17.2892 56.3452 17.2892H56.3477Z" fill="white"/>
<path d="M72.0866 19.9695H68.48C67.617 19.9695 66.9165 19.269 66.9165 18.4061V13.5964C66.9165 12.7335 67.617 12.033 68.48 12.033H72.0866C72.9495 12.033 73.65 12.7335 73.65 13.5964V18.4061C73.65 19.269 72.9495 19.9695 72.0866 19.9695ZM68.48 12.7538C68.0155 12.7538 67.6373 13.1319 67.6373 13.5964V18.4061C67.6373 18.8705 68.0155 19.2487 68.48 19.2487H72.0866C72.551 19.2487 72.9292 18.8705 72.9292 18.4061V13.5964C72.9292 13.1319 72.551 12.7538 72.0866 12.7538H68.48Z" fill="white"/>
<path d="M99.9592 19.9695H96.3501C95.4871 19.9695 94.7866 19.2689 94.7866 18.406V17.8781C94.7866 17.6776 94.9491 17.5177 95.147 17.5177C95.345 17.5177 95.5074 17.6801 95.5074 17.8781V18.406C95.5074 18.8705 95.8856 19.2486 96.3501 19.2486H99.9592C100.424 19.2486 100.802 18.8705 100.802 18.406V17.203C100.802 16.7385 100.424 16.3603 99.9592 16.3603H96.3501C95.4871 16.3603 94.7866 15.6573 94.7866 14.7943V13.5913C94.7866 12.7283 95.4871 12.0278 96.3501 12.0278H99.9592C100.822 12.0278 101.523 12.7283 101.523 13.5913V14.0684C101.523 14.2689 101.36 14.4288 101.162 14.4288C100.964 14.4288 100.802 14.2664 100.802 14.0684V13.5913C100.802 13.1268 100.424 12.7486 99.9592 12.7486H96.3501C95.8856 12.7486 95.5074 13.1268 95.5074 13.5913V14.7943C95.5074 15.2588 95.8856 15.637 96.3501 15.637H99.9592C100.822 15.637 101.523 16.34 101.523 17.203V18.406C101.523 19.2689 100.822 19.9695 99.9592 19.9695Z" fill="white"/>
<path d="M87.2261 19.9694C87.1221 19.9694 87.018 19.9237 86.9495 19.8399L81.5738 13.3907V19.6089C81.5738 19.8095 81.4114 19.9694 81.2134 19.9694C81.0155 19.9694 80.853 19.8069 80.853 19.6089V12.3932C80.853 12.2409 80.9469 12.1064 81.0916 12.0531C81.2363 11.9998 81.3936 12.0455 81.4926 12.1622L86.8683 18.6115V12.3932C86.8683 12.1927 87.0307 12.0328 87.2287 12.0328C87.4266 12.0328 87.5891 12.1952 87.5891 12.3932V19.6089C87.5891 19.7612 87.4952 19.8957 87.3505 19.949C87.3099 19.9643 87.2693 19.9719 87.2287 19.9719L87.2261 19.9694Z" fill="white"/>
</g>
<defs>
<clipPath id="clip0_2522_12334">
<rect width="101.523" height="32" fill="white"/>
</clipPath>
</defs>
</svg>
