<svg width="153" height="48" viewBox="0 0 153 48" fill="none" xmlns="http://www.w3.org/2000/svg">
<g clip-path="url(#clip0_1948_8931)">
<path d="M28.2106 28.9418C25.4618 28.9418 23.2271 26.7261 23.2271 24.0002C23.2271 21.2743 25.4618 19.0586 28.2106 19.0586C30.9593 19.0586 33.1941 21.2743 33.1941 24.0002C33.1941 26.7261 30.9593 28.9418 28.2106 28.9418ZM28.2106 20.1436C26.0595 20.1436 24.3083 21.872 24.3083 24.0002C24.3083 26.1284 26.0595 27.8568 28.2106 27.8568C30.3616 27.8568 32.1128 26.1284 32.1128 24.0002C32.1128 21.872 30.3616 20.1436 28.2106 20.1436Z" fill="#002957"/>
<path d="M36.849 33.3925C36.1599 33.3925 35.4594 33.2668 34.7817 32.9965C33.3883 32.4445 32.2995 31.3861 31.7132 30.0194C31.1345 28.664 31.1155 27.164 31.6713 25.7973C31.7817 25.5194 32.0977 25.3861 32.3757 25.4965C32.6536 25.6069 32.7868 25.9229 32.6764 26.2008C32.231 27.2973 32.2462 28.5003 32.7107 29.5892C33.1828 30.6894 34.0584 31.5422 35.1815 31.9876C37.4886 32.9013 40.1155 31.7897 41.0368 29.5054C42.0152 27.0803 41.9848 24.0346 41.9848 24.0041C41.9848 14.8633 34.4772 7.4318 25.2487 7.4318C17.665 7.4318 11.014 12.4914 9.07235 19.7364C8.99621 20.0257 8.69926 20.197 8.40992 20.1209C8.12058 20.0447 7.94926 19.7478 8.0254 19.4585C10.0927 11.7414 17.1777 6.35059 25.2487 6.35059C35.0749 6.35059 43.066 14.2656 43.066 23.9965C43.066 24.1222 43.1041 27.2782 42.0419 29.909C41.1701 32.0676 39.0685 33.3848 36.849 33.3848V33.3925Z" fill="#002957"/>
<path d="M37.5913 24.5404C37.2906 24.5404 37.0507 24.2967 37.0507 23.9998C37.0507 18.3691 32.4213 13.7891 26.7335 13.7891C21.7347 13.7891 17.6573 17.128 16.5951 22.0962C16.5342 22.3894 16.2449 22.5721 15.9517 22.5112C15.6586 22.4503 15.472 22.161 15.5368 21.8678C16.7132 16.3856 21.2132 12.7041 26.7373 12.7041C33.0228 12.7041 38.1357 17.7714 38.1357 23.996C38.1357 24.2967 37.8921 24.5366 37.5951 24.5366L37.5913 24.5404Z" fill="#002957"/>
<path d="M23.9922 48.0001C20.0747 48.0001 16.8882 44.8288 16.8882 40.9342C16.8882 37.0395 20.0747 33.8682 23.9922 33.8682C27.9098 33.8682 31.0963 37.0395 31.0963 40.9342C31.0963 44.8288 27.9098 48.0001 23.9922 48.0001ZM23.9922 34.9494C20.6724 34.9494 17.9694 37.6334 17.9694 40.9342C17.9694 44.2349 20.6686 46.9189 23.9922 46.9189C27.3158 46.9189 30.0113 44.2349 30.0113 40.9342C30.0113 37.6334 27.312 34.9494 23.9922 34.9494Z" fill="#002957"/>
<path d="M19.9531 27.0453C19.717 27.0453 19.481 27.0263 19.2411 26.9882C18.0533 26.7979 17.0102 26.1621 16.3097 25.1913C15.6168 24.2319 15.3388 23.0631 15.5292 21.8981C15.5749 21.6012 15.8566 21.3994 16.1498 21.4489C16.4467 21.4984 16.6447 21.7763 16.599 22.0694C16.4581 22.9489 16.6675 23.8321 17.1891 24.5555C17.7221 25.2902 18.5102 25.7737 19.4124 25.9184C21.2665 26.2154 23.0102 24.9628 23.3071 23.1354C23.3528 22.8385 23.6345 22.6367 23.9277 22.6862C24.2246 22.7357 24.4226 23.0136 24.3769 23.3067C24.0228 25.4882 22.1155 27.0415 19.9569 27.0415L19.9531 27.0453Z" fill="#002957"/>
<path d="M43.8046 33.8261C43.3973 33.8261 42.9861 33.7462 42.5902 33.5749C41.8364 33.2513 41.2577 32.6536 40.9569 31.8959C40.66 31.1421 40.6752 30.3198 40.9988 29.5774C41.1206 29.3033 41.4366 29.1777 41.7107 29.2995C41.9848 29.4213 42.1105 29.7373 41.9887 30.0114C41.7793 30.4873 41.7716 31.0127 41.962 31.4962C42.1562 31.9835 42.5293 32.368 43.0128 32.5774C44.0064 33.0038 45.1676 32.5584 45.6092 31.5799C46.6866 28.5571 46.9112 25.7855 46.9112 23.9962C46.9112 11.3604 36.5255 1.07741 23.7602 1.07741C13.1118 1.08122 3.86048 8.25761 1.27927 18.533C0.837642 20.3985 1.14982 22.3287 2.16632 23.9657C3.19424 25.6256 4.81607 26.7868 6.73104 27.2322C10.6638 28.1459 14.6118 25.7284 15.5369 21.8376C15.6054 21.5482 15.8986 21.3655 16.1879 21.4378C16.4772 21.5063 16.66 21.7995 16.5876 22.0888C15.5255 26.5584 10.995 29.3376 6.48358 28.2868C4.28688 27.7728 2.4252 26.4442 1.245 24.5368C0.0762206 22.6523 -0.285454 20.4289 0.228505 18.2779C2.93155 7.51142 12.613 0 23.7678 0C37.1308 0 48.0001 10.7665 48.0001 24C48.0001 25.8807 47.7602 28.7893 46.6257 31.9683C46.6219 31.9797 46.6181 31.9911 46.6105 32.0025C46.1117 33.1447 44.981 33.8261 43.8008 33.8261H43.8046Z" fill="#002957"/>
<path d="M59.1085 29.9546C58.8077 29.9546 58.5679 29.711 58.5679 29.414V18.5904C58.5679 18.2897 58.8115 18.0498 59.1085 18.0498C59.4054 18.0498 59.6491 18.2935 59.6491 18.5904V29.414C59.6491 29.7148 59.4054 29.9546 59.1085 29.9546Z" fill="#002957"/>
<path d="M68.0936 29.9546C67.987 29.9546 67.8766 29.9242 67.7814 29.8556L60.1634 24.4914C59.9197 24.3201 59.8588 23.9813 60.034 23.7376C60.2053 23.494 60.5441 23.433 60.7878 23.6082L68.4058 28.9724C68.6494 29.1437 68.7103 29.4825 68.5352 29.7262C68.4286 29.8747 68.2611 29.9546 68.0936 29.9546Z" fill="#002957"/>
<path d="M59.1087 25.5648C58.9412 25.5648 58.7737 25.4848 58.6671 25.3363C58.4919 25.0927 58.549 24.7538 58.7927 24.5825L67.8117 18.1485C68.0554 17.9734 68.3942 18.0305 68.5656 18.2742C68.7407 18.5178 68.6836 18.8566 68.4399 19.028L59.4209 25.462C59.3257 25.5305 59.2153 25.561 59.1087 25.561V25.5648Z" fill="#002957"/>
<path d="M84.5211 29.9541C84.2203 29.9541 83.9805 29.7104 83.9805 29.4135V25.3931C83.9805 25.0924 84.2241 24.8525 84.5211 24.8525C84.818 24.8525 85.0617 25.0962 85.0617 25.3931V29.4135C85.0617 29.7142 84.818 29.9541 84.5211 29.9541Z" fill="#002957"/>
<path d="M84.5213 25.9339C84.3462 25.9339 84.1748 25.8501 84.0682 25.6902L79.5568 18.8869C79.3931 18.6394 79.4578 18.3006 79.7091 18.1369C79.9566 17.9732 80.2954 18.0379 80.4591 18.2892L84.9705 25.0925C85.1342 25.3399 85.0695 25.6788 84.8182 25.8425C84.7269 25.9034 84.6241 25.9339 84.5175 25.9339H84.5213Z" fill="#002957"/>
<path d="M84.5211 25.9339C84.4183 25.9339 84.3155 25.9034 84.2203 25.8425C83.9729 25.6788 83.9043 25.3399 84.068 25.0925L88.5795 18.2892C88.7432 18.0379 89.082 17.9732 89.3295 18.1369C89.5769 18.3006 89.6454 18.6394 89.4817 18.8869L84.9703 25.6902C84.8675 25.8463 84.6924 25.9339 84.5173 25.9339H84.5211Z" fill="#002957"/>
<path d="M108.129 29.9546H102.719C101.425 29.9546 100.374 28.9039 100.374 27.6094V20.395C100.374 19.1006 101.425 18.0498 102.719 18.0498H108.129C109.424 18.0498 110.474 19.1006 110.474 20.395V27.6094C110.474 28.9039 109.424 29.9546 108.129 29.9546ZM102.719 19.131C102.023 19.131 101.455 19.6983 101.455 20.395V27.6094C101.455 28.3061 102.023 28.8734 102.719 28.8734H108.129C108.826 28.8734 109.393 28.3061 109.393 27.6094V20.395C109.393 19.6983 108.826 19.131 108.129 19.131H102.719Z" fill="#002957"/>
<path d="M149.939 29.9544H144.525C143.23 29.9544 142.18 28.9037 142.18 27.6093V26.8174C142.18 26.5166 142.423 26.2768 142.72 26.2768C143.017 26.2768 143.261 26.5204 143.261 26.8174V27.6093C143.261 28.306 143.828 28.8732 144.525 28.8732H149.939C150.635 28.8732 151.203 28.306 151.203 27.6093V25.8047C151.203 25.108 150.635 24.5407 149.939 24.5407H144.525C143.23 24.5407 142.18 23.4862 142.18 22.1917V20.3872C142.18 19.0928 143.23 18.042 144.525 18.042H149.939C151.233 18.042 152.284 19.0928 152.284 20.3872V21.1029C152.284 21.4037 152.04 21.6435 151.743 21.6435C151.446 21.6435 151.203 21.3999 151.203 21.1029V20.3872C151.203 19.6905 150.635 19.1232 149.939 19.1232H144.525C143.828 19.1232 143.261 19.6905 143.261 20.3872V22.1917C143.261 22.8884 143.828 23.4557 144.525 23.4557H149.939C151.233 23.4557 152.284 24.5103 152.284 25.8047V27.6093C152.284 28.9037 151.233 29.9544 149.939 29.9544Z" fill="#002957"/>
<path d="M130.838 29.9544C130.682 29.9544 130.526 29.8859 130.423 29.7602L122.36 20.0864V29.4138C122.36 29.7145 122.116 29.9544 121.819 29.9544C121.522 29.9544 121.279 29.7107 121.279 29.4138V18.5902C121.279 18.3618 121.42 18.16 121.637 18.08C121.854 18.0001 122.09 18.0686 122.238 18.2437L130.302 27.9176V18.5902C130.302 18.2894 130.545 18.0496 130.842 18.0496C131.139 18.0496 131.383 18.2932 131.383 18.5902V29.4138C131.383 29.6422 131.242 29.844 131.025 29.9239C130.964 29.9468 130.903 29.9582 130.842 29.9582L130.838 29.9544Z" fill="#002957"/>
</g>
<defs>
<clipPath id="clip0_1948_8931">
<rect width="152.284" height="48" fill="white"/>
</clipPath>
</defs>
</svg>
