<svg width="40" height="40" viewBox="0 0 40 40" fill="none" xmlns="http://www.w3.org/2000/svg">
<g clip-path="url(#clip0_8_125)">
<path d="M36.2547 40H3.74532C1.67715 40 0 38.3228 0 36.2547V3.74532C0 1.67715 1.67715 0 3.74532 0H36.2547C38.3228 0 40 1.67715 40 3.74532V36.2547C40 38.3228 38.3228 40 36.2547 40Z" fill="#2C3D5B"/>
<path d="M20.7258 28.9991C20.7258 30.322 20.7273 31.6441 20.725 32.9669C20.7243 33.3984 20.7205 33.4006 20.2883 33.4014C19.3026 33.4029 18.3168 33.4036 17.331 33.4006C16.964 33.3999 16.9587 33.3954 16.9587 33.0239C16.9572 30.6156 16.958 28.2081 16.9572 25.7999C16.9572 25.6748 16.961 25.5504 16.955 25.4254C16.925 24.8606 16.5325 24.474 16.0007 24.4823C15.4636 24.4905 15.0913 24.883 15.0906 25.4561C15.0883 27.9137 15.0913 30.3722 15.0891 32.8298C15.0883 33.4621 15.1505 33.3984 14.5363 33.4006C13.6007 33.4044 12.6644 33.4021 11.7288 33.4014C11.2951 33.4006 11.2921 33.3991 11.2921 32.9722C11.2913 30.5145 11.2936 28.0561 11.2876 25.5984C11.2868 25.3909 11.2696 25.1669 11.1902 24.9804C11.0336 24.6134 10.5805 24.4179 10.1865 24.498C9.74226 24.5886 9.4681 24.9092 9.45088 25.3617C9.44638 25.486 9.44938 25.6111 9.44938 25.7362C9.44938 28.1564 9.45013 30.5774 9.44863 32.9976C9.44863 33.3961 9.44413 33.3999 9.06061 33.4006C8.03739 33.4029 7.01417 33.3946 5.9917 33.4059C5.73477 33.4089 5.64563 33.3295 5.64638 33.0658C5.65462 30.4328 5.63065 27.8006 5.66061 25.1677C5.68159 23.3078 7.11754 21.6328 9.05462 21.1355C10.4089 20.7879 11.7056 20.946 12.9123 21.6658C13.1288 21.7946 13.2718 21.7812 13.4816 21.6583C15.6029 20.4149 18.3325 20.8845 19.8104 22.7392C20.4142 23.4965 20.7295 24.3572 20.7273 25.3317C20.7235 26.5534 20.7258 27.7759 20.7258 28.9991Z" fill="white"/>
<path d="M20.7262 14.6608C20.7262 15.9582 20.7269 17.2563 20.7254 18.5537C20.7247 19.0406 20.7224 19.0421 20.222 19.0429C19.2737 19.0444 18.3254 19.0451 17.3771 19.0421C16.9621 19.0406 16.9584 19.0369 16.9584 18.6279C16.9569 16.1575 16.9584 13.6871 16.9569 11.2166C16.9561 10.6294 16.7531 10.314 16.2977 10.168C15.6827 9.97095 15.0962 10.3942 15.0924 11.0541C15.085 12.2144 15.0902 13.3747 15.0902 14.535C15.0902 15.8953 15.0909 17.2548 15.0894 18.6151C15.0887 19.0361 15.0865 19.0406 14.6835 19.0421C13.685 19.0451 12.6872 19.0451 11.6887 19.0421C11.2992 19.0406 11.2924 19.0331 11.2924 18.6391C11.2909 16.156 11.2902 13.6736 11.2932 11.1904C11.2939 10.8803 11.2632 10.5919 11.0093 10.3747C10.7074 10.1163 10.3696 10.0414 10.0011 10.1972C9.61529 10.3605 9.44525 10.6593 9.44675 11.0841C9.45349 13.5417 9.4505 16.0002 9.449 18.4578C9.44825 19.0646 9.51791 19.0429 8.85948 19.0436C7.91117 19.0444 6.96285 19.0361 6.01454 19.0473C5.74263 19.0503 5.64525 18.9672 5.646 18.6841C5.65499 16.0766 5.63476 13.4683 5.65799 10.8608C5.67446 8.94698 7.12241 7.2496 9.11042 6.75672C10.4288 6.43012 11.6902 6.59192 12.864 7.27806C13.1194 7.42713 13.2909 7.41215 13.5351 7.26833C15.7763 5.95447 18.7202 6.63012 20.085 8.76046C20.5127 9.42788 20.7291 10.159 20.7277 10.9545C20.7247 12.1904 20.7262 13.4256 20.7262 14.6608Z" fill="white"/>
<path d="M34.3558 27.1971C34.3543 30.6465 31.6022 33.3993 28.1513 33.4015C24.6749 33.4038 21.9221 30.633 21.9251 27.1349C21.928 23.7177 24.7273 20.9551 28.176 20.9663C31.6164 20.9768 34.3565 23.7401 34.3558 27.1971ZM28.14 29.8869C29.6397 29.8884 30.8689 28.6645 30.8576 27.1813C30.8464 25.6989 29.6419 24.4884 28.1692 24.4802C26.6756 24.472 25.4419 25.6832 25.4284 27.1708C25.4149 28.651 26.6471 29.8854 28.14 29.8869Z" fill="white"/>
<path d="M34.3558 12.8236C34.355 16.291 31.5872 19.0551 28.1265 19.0431C24.6674 19.0311 21.9228 16.2618 21.9251 12.7862C21.9273 9.36969 24.728 6.59142 28.1633 6.59816C31.5955 6.60415 34.3558 9.38018 34.3558 12.8236ZM28.1535 15.524C29.6479 15.5203 30.8771 14.2828 30.8561 12.8049C30.8352 11.3247 29.6239 10.118 28.155 10.1128C26.6734 10.1075 25.4307 11.342 25.4277 12.8214C25.4247 14.3023 26.6614 15.5277 28.1535 15.524Z" fill="white"/>
</g>
<defs>
<clipPath id="clip0_8_125">
<rect width="40" height="40" fill="white"/>
</clipPath>
</defs>
</svg>
