<svg width="45" height="40" viewBox="0 0 45 40" fill="none" xmlns="http://www.w3.org/2000/svg">
<path d="M14.5547 20.1719C14.5547 21.125 13.7969 21.8516 12.8359 21.8516C12.1172 21.8516 11.5859 21.4453 11.5859 20.6797C11.5859 19.7266 12.3281 18.9609 13.2812 18.9609C14.0078 18.9609 14.5547 19.4062 14.5547 20.1719ZM6.28906 16.3828H5.92188C5.80469 16.3828 5.6875 16.4609 5.67188 16.5938L5.33594 18.6797L5.97656 18.6562C6.83594 18.6562 7.5 18.5391 7.65625 17.5469C7.83594 16.5 7.17188 16.3828 6.28906 16.3828ZM28.4766 16.3828H28.125C27.9844 16.3828 27.8906 16.4609 27.875 16.5938L27.5469 18.6797L28.1719 18.6562C29.1875 18.6562 29.8906 18.4219 29.8906 17.25C29.8828 16.4219 29.1406 16.3828 28.4766 16.3828ZM45 6.25V33.75C45 35.8203 43.3203 37.5 41.25 37.5H3.75C1.67969 37.5 0 35.8203 0 33.75V6.25C0 4.17969 1.67969 2.5 3.75 2.5H41.25C43.3203 2.5 45 4.17969 45 6.25ZM10.0234 16.8281C10.0234 15.1875 8.75781 14.6406 7.3125 14.6406H4.1875C3.99219 14.6406 3.79688 14.7969 3.78125 15.0078L2.5 22.9844C2.47656 23.1406 2.59375 23.2969 2.75 23.2969H4.23438C4.44531 23.2969 4.64062 23.0703 4.66406 22.8516L5.01562 20.7734C5.09375 20.2109 6.04687 20.4062 6.42188 20.4062C8.65625 20.4062 10.0234 19.0781 10.0234 16.8281ZM16.6016 17.5156H15.1172C14.8203 17.5156 14.8047 17.9453 14.7891 18.1562C14.3359 17.4922 13.6797 17.375 12.9375 17.375C11.0234 17.375 9.5625 19.0547 9.5625 20.9062C9.5625 22.4297 10.5156 23.4219 12.0391 23.4219C12.7422 23.4219 13.6172 23.0391 14.1094 22.4922C14.0703 22.6094 14.0312 22.8594 14.0312 22.9766C14.0312 23.1562 14.1094 23.2891 14.2812 23.2891H15.625C15.8359 23.2891 16.0156 23.0625 16.0547 22.8438L16.8516 17.8203C16.875 17.6719 16.7578 17.5156 16.6016 17.5156ZM19.7656 25.1641L24.7422 17.9297C24.7812 17.8906 24.7812 17.8516 24.7812 17.7969C24.7812 17.6641 24.6641 17.5234 24.5312 17.5234H23.0312C22.8984 17.5234 22.7578 17.6016 22.6797 17.7188L20.6094 20.7656L19.75 17.8359C19.6875 17.6641 19.5156 17.5234 19.3203 17.5234H17.8594C17.7266 17.5234 17.6094 17.6641 17.6094 17.7969C17.6094 17.8906 19.1328 22.2344 19.2656 22.6484C19.0547 22.9453 17.6641 24.8828 17.6641 25.1172C17.6641 25.2578 17.7812 25.3672 17.9141 25.3672H19.4141C19.5547 25.3594 19.6875 25.2812 19.7656 25.1641ZM32.2109 16.8281C32.2109 15.1875 30.9453 14.6406 29.5 14.6406H26.3984C26.1875 14.6406 25.9922 14.7969 25.9688 15.0078L24.7031 22.9766C24.6875 23.1328 24.8047 23.2891 24.9531 23.2891H26.5547C26.7109 23.2891 26.8281 23.1719 26.8672 23.0391L27.2188 20.7734C27.2969 20.2109 28.25 20.4062 28.625 20.4062C30.8438 20.4062 32.2109 19.0781 32.2109 16.8281ZM38.7891 17.5156H37.3047C37.0078 17.5156 36.9922 17.9453 36.9688 18.1562C36.5391 17.4922 35.875 17.375 35.1172 17.375C33.2031 17.375 31.7422 19.0547 31.7422 20.9062C31.7422 22.4297 32.6953 23.4219 34.2188 23.4219C34.9453 23.4219 35.8203 23.0391 36.2891 22.4922C36.2656 22.6094 36.2109 22.8594 36.2109 22.9766C36.2109 23.1562 36.2891 23.2891 36.4609 23.2891H37.8125C38.0234 23.2891 38.2031 23.0625 38.2422 22.8438L39.0391 17.8203C39.0625 17.6719 38.9453 17.5156 38.7891 17.5156ZM42.5 14.9141C42.5 14.7578 42.3828 14.6406 42.25 14.6406H40.8047C40.6875 14.6406 40.5703 14.7344 40.5547 14.8516L39.2891 22.9766L39.2656 23.0156C39.2656 23.1562 39.3828 23.2891 39.5391 23.2891H40.8281C41.0234 23.2891 41.2188 23.0625 41.2344 22.8438L42.5 14.9375V14.9141ZM35.4688 18.9609C34.5156 18.9609 33.7734 19.7188 33.7734 20.6797C33.7734 21.4375 34.3203 21.8516 35.0391 21.8516C35.9766 21.8516 36.7344 21.1328 36.7344 20.1719C36.7422 19.4062 36.1953 18.9609 35.4688 18.9609Z" fill="#2C3D5B"/>
</svg>
