<svg width="40" height="40" viewBox="0 0 40 40" fill="none" xmlns="http://www.w3.org/2000/svg">
<g clip-path="url(#clip0_701_310)">
<path d="M23.4203 6.45915C23.1114 6.14883 22.7186 5.99202 22.2402 5.99202C21.5384 5.99202 21.0264 6.3238 20.7041 6.98571C20.0158 6.1901 19.0757 5.79395 17.8821 5.79395C16.4501 5.79395 15.2464 6.33701 14.271 7.42313C13.2957 8.50925 12.8088 9.83472 12.8088 11.3962C12.8088 12.9577 13.2957 14.2832 14.271 15.3693C15.2464 16.4554 16.4518 16.9985 17.8821 16.9985C19.074 16.9985 20.0158 16.6007 20.7041 15.8067C21.0264 16.4703 21.5384 16.8004 22.2402 16.8004C22.7169 16.8004 23.1098 16.6453 23.4203 16.3333C23.7292 16.023 23.8837 15.6417 23.8837 15.191V7.6014C23.8837 7.15077 23.7292 6.77113 23.4203 6.45915ZM19.999 13.278C19.5995 13.7847 19.0471 14.0389 18.3454 14.0389C17.6437 14.0389 17.0931 13.7864 16.6918 13.278C16.2923 12.7696 16.0925 12.144 16.0925 11.3962C16.0925 10.6485 16.2923 10.0229 16.6918 9.51449C17.0914 9.00774 17.642 8.75355 18.3454 8.75355C19.0488 8.75355 19.5978 9.00609 19.999 9.51449C20.3985 10.0212 20.5983 10.6485 20.5983 11.3962C20.5983 12.144 20.3985 12.7712 19.999 13.278Z" fill="#2C3D5B"/>
<path d="M27.6023 16.3331C27.2934 16.6451 26.9006 16.8002 26.4238 16.8002C25.947 16.8002 25.5525 16.6451 25.2436 16.3331C24.9347 16.0228 24.7803 15.6415 24.7803 15.1909V1.60938C24.7803 1.15875 24.9347 0.777452 25.2436 0.467132C25.5525 0.15516 25.9453 0 26.4238 0C26.9022 0 27.2934 0.15516 27.6023 0.467132C27.9112 0.779103 28.0656 1.1604 28.0656 1.60938V15.1909C28.0656 15.6415 27.9112 16.0228 27.6023 16.3331Z" fill="#2C3D5B"/>
<path d="M38.484 7.42313C37.4314 6.33701 36.09 5.79395 34.4616 5.79395C32.8332 5.79395 31.5036 6.3304 30.4729 7.40332C29.4404 8.47624 28.925 9.80666 28.925 11.3962C28.925 12.9858 29.4404 14.3162 30.4729 15.3891C31.5053 16.462 32.8332 16.9985 34.4616 16.9985C36.09 16.9985 37.4314 16.4554 38.484 15.3693C39.4946 14.3096 39.9999 12.9858 39.9999 11.3962C39.9999 9.80666 39.4946 8.48284 38.484 7.42313ZM36.1152 13.278C35.7157 13.7847 35.1633 14.0389 34.4616 14.0389C33.7599 14.0389 33.2093 13.7864 32.8097 13.278C32.4102 12.7696 32.2087 12.144 32.2087 11.3962C32.2087 10.6485 32.4085 10.0229 32.8097 9.51449C33.2093 9.00774 33.7599 8.75355 34.4616 8.75355C35.1633 8.75355 35.714 9.00609 36.1152 9.51449C36.5148 10.0212 36.7145 10.6485 36.7145 11.3962C36.7145 12.144 36.5148 12.7712 36.1152 13.278Z" fill="#2C3D5B"/>
<path d="M10.9908 6.16991C12.1509 4.69754 12.7317 3.70715 12.7317 3.19546C12.7317 2.01525 11.9763 1.42432 10.4637 1.42432H2.49124C1.86506 1.42432 1.3799 1.56957 1.03575 1.86009C0.691604 2.15225 0.52037 2.53025 0.52037 2.99408C0.52037 3.45791 0.691604 3.83921 1.03575 4.12972C1.3799 4.42023 1.86338 4.56549 2.49124 4.56549H7.9657L0.955171 13.4724C0.496867 14.055 0.268555 14.5717 0.268555 15.0223C0.268555 16.3164 1.13984 16.9651 2.88072 16.9651H11.105C12.4195 16.9651 13.0759 16.4237 13.0759 15.3392C13.0759 14.2548 12.4195 13.7133 11.105 13.7133H5.0564L10.9892 6.16991H10.9908Z" fill="#2C3D5B"/>
<path d="M6.79736 25.3537H4.74927V29.5381H6.79736C7.41347 29.5381 7.91207 29.34 8.29315 28.9455C8.67423 28.551 8.86561 28.0509 8.86561 27.4451C8.86561 26.8393 8.67423 26.3391 8.29315 25.9446C7.91207 25.5501 7.41347 25.3521 6.79736 25.3521V25.3537Z" fill="#2C3D5B"/>
<path d="M17.0125 29.2871C16.3628 29.2871 15.8525 29.5215 15.4832 29.9903C15.1138 30.4591 14.9275 31.0401 14.9275 31.7317C14.9275 32.4233 15.1122 33.0044 15.4832 33.4731C15.8542 33.9419 16.3628 34.1763 17.0125 34.1763C17.6622 34.1763 18.1725 33.9419 18.5419 33.4731C18.9112 33.0027 19.0976 32.4233 19.0976 31.7317C19.0976 31.0401 18.9129 30.4607 18.5419 29.9903C18.1709 29.5215 17.6605 29.2871 17.0125 29.2871Z" fill="#2C3D5B"/>
<path d="M31.4769 19.3735H1.79292C0.802451 19.3735 0 20.1625 0 21.1364V38.2354C0 39.2093 0.802451 39.9983 1.79292 39.9983H25.2252C24.9784 39.7672 24.8542 39.4982 24.8542 39.1895C24.8542 38.9369 24.9112 38.6728 25.0271 38.3955L26.1317 35.979L23.0747 28.4768C22.9857 28.2622 22.9404 28.0295 22.9404 27.777C22.9404 27.4501 23.0814 27.1728 23.3634 26.945C23.6454 26.7189 23.9392 26.605 24.2481 26.605C24.9263 26.605 25.388 26.9269 25.6314 27.569L27.5351 32.6893L29.5732 27.569C29.83 26.9269 30.29 26.605 30.9565 26.605C31.2637 26.605 31.5592 26.7189 31.8412 26.945C32.1232 27.1712 32.2642 27.4485 32.2642 27.777C32.2642 28.0295 32.2189 28.2622 32.1299 28.4768L27.604 39.2836C27.4797 39.5856 27.3303 39.8233 27.1574 39.9983H31.4769C32.4674 39.9983 33.2698 39.2093 33.2698 38.2354V21.1364C33.2698 20.1625 32.4674 19.3735 31.4769 19.3735ZM10.5108 30.8785C9.57401 31.7203 8.39552 32.1412 6.97864 32.1412H4.75091V35.3782C4.75091 35.8651 4.6099 36.2431 4.32954 36.5121C4.04919 36.7812 3.68657 36.9166 3.24506 36.9166C2.80354 36.9166 2.44261 36.7812 2.16057 36.5121C1.88022 36.2431 1.7392 35.8651 1.7392 35.3782V24.2875C1.7392 23.2608 2.2613 22.7474 3.30549 22.7474H6.85777C8.34348 22.7474 9.57065 23.1849 10.541 24.0597C11.5113 24.9345 11.9965 26.0702 11.9965 27.4633C11.9965 28.8565 11.5012 30.0086 10.5108 30.8769V30.8785ZM22.1379 35.2445C22.1379 35.6621 21.9952 36.0137 21.7098 36.3009C21.4228 36.5897 21.0601 36.7333 20.6186 36.7333C19.9689 36.7333 19.4955 36.428 19.1967 35.8139C18.5588 36.5501 17.6892 36.9166 16.5862 36.9166C15.2617 36.9166 14.147 36.4148 13.2438 35.4095C12.3406 34.4043 11.8907 33.1779 11.8907 31.7319C11.8907 30.2859 12.3423 29.0595 13.2438 28.0543C14.147 27.049 15.2617 26.5472 16.5862 26.5472C17.6892 26.5472 18.5605 26.9153 19.1967 27.6499C19.4955 27.0375 19.9689 26.7304 20.6186 26.7304C21.0601 26.7304 21.4244 26.8741 21.7098 27.1629C21.9952 27.4518 22.1379 27.8034 22.1379 28.221V35.2445Z" fill="#2C3D5B"/>
</g>
<defs>
<clipPath id="clip0_701_310">
<rect width="40" height="40" fill="white"/>
</clipPath>
</defs>
</svg>
